<mxfile host="Electron" modified="2024-05-08T13:15:50.134Z" agent="Mozilla/5.0 (Windows NT 10.0; Win64; x64) AppleWebKit/537.36 (KHTML, like Gecko) draw.io/24.2.5 Chrome/120.0.6099.109 Electron/28.1.0 Safari/537.36" etag="ik4POiuQKMxvUhoG60xR" version="24.2.5" type="device">
  <diagram name="Seite-1" id="gCVHBd_p05oyl3W1I4jC">
    <mxGraphModel dx="2368" dy="452" grid="1" gridSize="10" guides="1" tooltips="1" connect="1" arrows="1" fold="1" page="1" pageScale="1" pageWidth="827" pageHeight="1169" math="0" shadow="0">
      <root>
        <mxCell id="0" />
        <mxCell id="1" parent="0" />
        <mxCell id="bvi_fsvsC1UmlpESNVgQ-41" value="&lt;font face=&quot;Helvetica&quot;&gt;1. Beschreiben des Problems&lt;/font&gt;" style="rounded=0;whiteSpace=wrap;html=1;hachureGap=4;fontFamily=Architects Daughter;fontSource=https%3A%2F%2Ffonts.googleapis.com%2Fcss%3Ffamily%3DArchitects%2BDaughter;fillColor=#b0e3e6;strokeColor=#0e8088;align=left;spacingLeft=6;fontStyle=0" vertex="1" parent="1">
          <mxGeometry x="-1400" y="360" width="240" height="30" as="geometry" />
        </mxCell>
        <mxCell id="bvi_fsvsC1UmlpESNVgQ-42" value="&lt;font face=&quot;Helvetica&quot;&gt;2. Analyse und Zerlegen des Problems&lt;/font&gt;" style="rounded=0;whiteSpace=wrap;html=1;hachureGap=4;fontFamily=Architects Daughter;fontSource=https%3A%2F%2Ffonts.googleapis.com%2Fcss%3Ffamily%3DArchitects%2BDaughter;fillColor=#dae8fc;strokeColor=#6c8ebf;align=left;spacingLeft=6;" vertex="1" parent="1">
          <mxGeometry x="-1400" y="420" width="240" height="30" as="geometry" />
        </mxCell>
        <mxCell id="bvi_fsvsC1UmlpESNVgQ-43" value="&lt;font face=&quot;Helvetica&quot;&gt;3. Erarbeiten von Lösungen&lt;/font&gt;" style="rounded=0;whiteSpace=wrap;html=1;hachureGap=4;fontFamily=Architects Daughter;fontSource=https%3A%2F%2Ffonts.googleapis.com%2Fcss%3Ffamily%3DArchitects%2BDaughter;fillColor=#dae8fc;strokeColor=#6c8ebf;align=left;spacingLeft=6;" vertex="1" parent="1">
          <mxGeometry x="-1400" y="480" width="240" height="30" as="geometry" />
        </mxCell>
        <mxCell id="bvi_fsvsC1UmlpESNVgQ-44" value="&lt;font face=&quot;Helvetica&quot;&gt;4. Überprüfen und Bewerten der Lösungen&lt;/font&gt;" style="rounded=0;whiteSpace=wrap;html=1;hachureGap=4;fontFamily=Architects Daughter;fontSource=https%3A%2F%2Ffonts.googleapis.com%2Fcss%3Ffamily%3DArchitects%2BDaughter;fillColor=#dae8fc;strokeColor=#6c8ebf;align=left;spacingLeft=6;" vertex="1" parent="1">
          <mxGeometry x="-1400" y="540" width="240" height="30" as="geometry" />
        </mxCell>
        <mxCell id="bvi_fsvsC1UmlpESNVgQ-45" value="&lt;font face=&quot;Helvetica&quot;&gt;5. Umsetzen der Lösungen&lt;/font&gt;" style="rounded=0;whiteSpace=wrap;html=1;hachureGap=4;fontFamily=Architects Daughter;fontSource=https%3A%2F%2Ffonts.googleapis.com%2Fcss%3Ffamily%3DArchitects%2BDaughter;fillColor=#dae8fc;strokeColor=#6c8ebf;align=left;spacingLeft=6;" vertex="1" parent="1">
          <mxGeometry x="-1400" y="600" width="240" height="30" as="geometry" />
        </mxCell>
        <mxCell id="bvi_fsvsC1UmlpESNVgQ-48" value="" style="endArrow=classic;html=1;rounded=0;exitX=0.5;exitY=1;exitDx=0;exitDy=0;" edge="1" parent="1" source="bvi_fsvsC1UmlpESNVgQ-41" target="bvi_fsvsC1UmlpESNVgQ-42">
          <mxGeometry width="50" height="50" relative="1" as="geometry">
            <mxPoint x="-1270" y="540" as="sourcePoint" />
            <mxPoint x="-1220" y="490" as="targetPoint" />
          </mxGeometry>
        </mxCell>
        <mxCell id="bvi_fsvsC1UmlpESNVgQ-49" value="" style="endArrow=classic;html=1;rounded=0;exitX=0.5;exitY=1;exitDx=0;exitDy=0;entryX=0.5;entryY=0;entryDx=0;entryDy=0;" edge="1" parent="1" source="bvi_fsvsC1UmlpESNVgQ-42" target="bvi_fsvsC1UmlpESNVgQ-43">
          <mxGeometry width="50" height="50" relative="1" as="geometry">
            <mxPoint x="-1270" y="400" as="sourcePoint" />
            <mxPoint x="-1270" y="430" as="targetPoint" />
          </mxGeometry>
        </mxCell>
        <mxCell id="bvi_fsvsC1UmlpESNVgQ-50" value="" style="endArrow=classic;html=1;rounded=0;exitX=0.5;exitY=1;exitDx=0;exitDy=0;entryX=0.5;entryY=0;entryDx=0;entryDy=0;" edge="1" parent="1" source="bvi_fsvsC1UmlpESNVgQ-43" target="bvi_fsvsC1UmlpESNVgQ-44">
          <mxGeometry width="50" height="50" relative="1" as="geometry">
            <mxPoint x="-1270" y="460" as="sourcePoint" />
            <mxPoint x="-1270" y="490" as="targetPoint" />
          </mxGeometry>
        </mxCell>
        <mxCell id="bvi_fsvsC1UmlpESNVgQ-51" value="" style="endArrow=classic;html=1;rounded=0;exitX=0.5;exitY=1;exitDx=0;exitDy=0;entryX=0.5;entryY=0;entryDx=0;entryDy=0;" edge="1" parent="1" source="bvi_fsvsC1UmlpESNVgQ-44" target="bvi_fsvsC1UmlpESNVgQ-45">
          <mxGeometry width="50" height="50" relative="1" as="geometry">
            <mxPoint x="-1270" y="520" as="sourcePoint" />
            <mxPoint x="-1270" y="550" as="targetPoint" />
          </mxGeometry>
        </mxCell>
        <mxCell id="bvi_fsvsC1UmlpESNVgQ-53" value="&lt;font face=&quot;Helvetica&quot;&gt;&quot;Houston, we have a problem!!!&quot;&lt;/font&gt;" style="rounded=0;whiteSpace=wrap;html=1;hachureGap=4;fontFamily=Architects Daughter;fontSource=https%3A%2F%2Ffonts.googleapis.com%2Fcss%3Ffamily%3DArchitects%2BDaughter;fillColor=#f8cecc;strokeColor=#b85450;align=center;spacingLeft=6;fontStyle=2;fillStyle=hatch;" vertex="1" parent="1">
          <mxGeometry x="-1400" y="300" width="240" height="30" as="geometry" />
        </mxCell>
        <mxCell id="bvi_fsvsC1UmlpESNVgQ-54" value="" style="endArrow=classic;html=1;rounded=0;exitX=0.5;exitY=1;exitDx=0;exitDy=0;entryX=0.5;entryY=0;entryDx=0;entryDy=0;" edge="1" parent="1" source="bvi_fsvsC1UmlpESNVgQ-53" target="bvi_fsvsC1UmlpESNVgQ-41">
          <mxGeometry width="50" height="50" relative="1" as="geometry">
            <mxPoint x="-1270" y="400" as="sourcePoint" />
            <mxPoint x="-1270" y="430" as="targetPoint" />
          </mxGeometry>
        </mxCell>
        <mxCell id="bvi_fsvsC1UmlpESNVgQ-55" value="&lt;font face=&quot;Helvetica&quot;&gt;&quot;Success!!!&quot;&lt;/font&gt;" style="rounded=0;whiteSpace=wrap;html=1;hachureGap=4;fontFamily=Architects Daughter;fontSource=https%3A%2F%2Ffonts.googleapis.com%2Fcss%3Ffamily%3DArchitects%2BDaughter;fillColor=#d5e8d4;strokeColor=#82b366;align=center;spacingLeft=6;fontStyle=2;fillStyle=hatch;" vertex="1" parent="1">
          <mxGeometry x="-1400" y="660" width="240" height="30" as="geometry" />
        </mxCell>
        <mxCell id="bvi_fsvsC1UmlpESNVgQ-56" value="" style="endArrow=classic;html=1;rounded=0;exitX=0.5;exitY=1;exitDx=0;exitDy=0;entryX=0.5;entryY=0;entryDx=0;entryDy=0;" edge="1" parent="1" source="bvi_fsvsC1UmlpESNVgQ-45" target="bvi_fsvsC1UmlpESNVgQ-55">
          <mxGeometry width="50" height="50" relative="1" as="geometry">
            <mxPoint x="-1270" y="580" as="sourcePoint" />
            <mxPoint x="-1270" y="610" as="targetPoint" />
          </mxGeometry>
        </mxCell>
      </root>
    </mxGraphModel>
  </diagram>
</mxfile>
